<svg xmlns="http://www.w3.org/2000/svg" viewBox="0 0 800 359.53"><defs><style>.a{fill:#ff5959;}.b{fill:#fff;}</style></defs><path class="a" d="M93.53,140.85c-3.15-.28-5.73,2.54-5.76,5.69l-.16,20.27c0,3.15,2.52,5.89,5.66,5.49,6.56-.85,16.44-4.2,16.44-16.66C109.71,144.2,100,141.43,93.53,140.85Z"/><path class="a" d="M94,96.55c5.45-.49,12.84-3.12,12.84-13.78,0-10.1-7.4-12.41-12.85-12.73-3.15-.19-5.7,2.85-5.7,6V90.68C88.33,93.84,90.89,96.83,94,96.55Z"/><path class="a" d="M279,89.72c-3.16,0-5.69,3-5.69,6.17v23.52A5.42,5.42,0,0,0,279,125c8-.73,21.59-4.09,21.59-18.51C300.58,91.62,287,89.61,279,89.72Z"/><path class="a" d="M476.51,94.62c-13.91,0-22.67,12.44-22.67,26.95S462.34,150,476.25,150c12.37,0,22.41-14.22,22.41-28.14C498.41,107.06,488.36,94.62,476.51,94.62Z"/><path class="a" d="M752.6,50.5,740.88,38.77c-22.64-23-56.55-34.63-100.81-34.63-27.65,0-61.46,3.48-62.89,3.63a12.87,12.87,0,0,0-11.53,13.08c0,.16.24,11,.49,28.24l-17.9-17.9-.3-.3-.46-.46C528.11,10.81,503.19,0,477.28,0c-36.1,0-70.67,21.72-90.72,55.61l-.39-.39c-.23-.24-.45-.46-.56-.56l-.56-.57-.56-.56-.56-.56-.58-.58-4.47-4.46-.56-.56-.53-.54c-.25-.25-.5-.51-.56-.55-.23-.25-.47-.48-.59-.6s-.48-.49-.53-.52c-.23-.25-.47-.49-.59-.6L375,44c-.25-.26-.5-.52-.56-.56l-.56-.57-.56-.56-.59-.58-.56-.57-.58-.58-.54-.54-.6-.6-.52-.51-.56-.57-.56-.56-1.12-1.12-.58-.58-1.66-1.65-.56-.57-.57-.57c-20.24-19.57-52.08-29.5-94.64-29.5-28,0-74.54,3.74-76.51,3.9a12.86,12.86,0,0,0-11.82,13.1c0,.13.18,8.12.38,21.25l-7.86-7.86h0l-6-6C152.19,12,125.66,4.14,86.79,4.14c-20,0-72.55,3.45-74.77,3.59A12.86,12.86,0,0,0,0,20.84c0,.47,1,47.56,1,98.07C1,168.85,0,223,0,223.53a12.82,12.82,0,0,0,4.05,9.61c.18.19.37.38.56.56s.39.4.59.58l.51.52c.2.21.4.41.61.61s.35.36.54.53.4.42.61.61l.44.44q.3.33.63.63c.17.19.36.38.55.56l.57.57c.23.25.48.49.73.72l.61.58a11.26,11.26,0,0,0,.9.93c.18.2.37.39.56.57l.56.56c.18.19.37.38.56.56s.37.38.56.56l.56.56.56.56c.2.21.41.41.62.61l.44.45c.2.21.4.41.62.62l.56.56.56.56.56.56.56.56c.18.2.37.38.56.56s.37.38.56.56.37.38.56.56.39.4.59.59l.51.51c.2.21.4.41.61.61s.35.36.54.53.4.42.61.62l.44.43q.3.33.63.63c.18.19.36.38.55.56l.57.57c.18.19.37.39.57.57s.55.55.84.81.54.58.83.86l.56.56.56.56.56.56.56.56L31,260c.2.21.41.41.62.61s.29.3.44.44a12.82,12.82,0,0,0,8.52,4.09c2.42.17,59.47,4.18,83.85,4.18,33.31,0,59-6.95,76.53-20.69l.17.16.19.2.37.36.19.2.35.34.17.18.43.42.17.18.36.34a2.09,2.09,0,0,0,.2.22l.37.36.19.2c.12.13.25.24.37.36l.19.2.37.36.19.2.37.36.2.2.36.36.2.2.36.36.2.2.37.37.19.19q.19.21.39.39l.17.17c.11.11.22.23.33.33l.23.24c.13.13.26.26.4.38a1.29,1.29,0,0,0,.16.17,4.17,4.17,0,0,0,.37.36,1.8,1.8,0,0,0,.19.2c.11.12.23.23.35.35l.17.17.41.41.15.15.41.41.19.19a4.17,4.17,0,0,0,.37.36l.19.21c.12.12.24.24.37.35l.19.21c.12.12.24.24.37.35l.19.21c.12.12.24.24.37.35l.19.21a12.87,12.87,0,0,0,9.18,3.85h77.53a12.86,12.86,0,0,0,12.86-12.86V250l5.13,5.13.46.47.66.65,1.67,1.68.57.57.51.5,2.83,2.84a256.12,256.12,0,0,0,24.71,22.05,12.84,12.84,0,0,0,16.52-.8L419,234.24a13,13,0,0,0,2.3-2.84l6.79,6.8.31.3.81.82.31.3,3.62,3.63c19,19.21,43.09,29.36,69.59,29.36,27.51,0,54-11.9,73.83-32.56.17.18.35.34.53.51l.42.42c.18.19.37.37.56.55s.37.39.56.57.37.38.56.55l.48.49c.24.25.49.51.75.74l.35.36c.21.22.43.45.66.66l.53.54c.2.21.41.42.62.62s.33.34.5.5.39.4.59.59.37.38.56.56.37.38.56.56.37.38.56.56.37.38.56.56.37.38.56.56.37.38.57.56a7.4,7.4,0,0,0,.56.56c.18.2.37.39.57.58s.37.37.56.56.34.34.51.51.39.4.6.6.36.38.56.56.36.38.56.56.37.38.56.56.46.47.7.69l.28.28q.4.43.84.84l.42.42c.18.19.37.38.56.55s.37.39.56.57.37.38.56.56l.48.48c.24.26.48.5.74.74l.35.35c.21.23.42.44.65.65a12.78,12.78,0,0,0,8.15,4c1.79.17,44,4.21,75.42,4.21C753.4,269.36,800,223.61,800,152.82c0-36.52-10.49-65.49-31.19-86.11ZM95.8,227.92c-19.62,0-61.9-2.73-77.24-3.76a6.08,6.08,0,0,1-5.6-6.11c.26-15.21.93-58.33.93-99.14,0-40.6-.65-78.6-.91-92.64a6,6,0,0,1,5.58-6.07C33,19.29,70.89,17,86.79,17c47.39,0,83.46,12.44,83.46,51.24,0,19.68-8.91,32-15.64,38.2-2.31,2.15-2,4.21.94,5.43,12.63,5.29,30.41,19.19,30.41,50C186,206,153.25,227.92,95.8,227.92Zm281.73-27.81-44.42,41.1a6.78,6.78,0,0,1-8.65.31,250.31,250.31,0,0,1-24.14-22.79,340.64,340.64,0,0,1-25.5-31.93c-1.81-2.59-3.09-2.24-3.09.92v30.33a5.72,5.72,0,0,1-5.71,5.72h-66.1a5.6,5.6,0,0,1-5.62-5.72c.26-15.11.93-57.55.93-95,0-44.12-.65-82.67-.92-96.77a6.13,6.13,0,0,1,5.59-6.16c13.47-1,47.8-3.41,69.77-3.41,75.48,0,107.42,32,107.42,84.42,0,34.46-23.61,54.89-37.5,63.31-2.7,1.63-3,4.3-.43,6.18,5.47,4,14.69,10.71,21.18,14.64,5.43,3.29,11.82,6.48,16.19,8.57C379.38,195.18,379.84,198,377.53,200.11Zm96.66,31.07c-54.35,0-92.47-49.77-92.47-109.9,0-62.51,47.39-108.42,95.56-108.42,47.91,0,92.22,43.54,92.22,107.83C569.5,188.52,522.36,231.18,474.19,231.18Zm178.5-3.26c-24.29,0-55.78-2.52-68.49-3.64a6.23,6.23,0,0,1-5.59-6.22c.26-15.17.93-57.89.93-95.6,0-43.65-.65-82.09-.91-96.18A6.26,6.26,0,0,1,584.2,20c10.87-1,35.34-3,55.87-3,76,0,118.49,36.43,118.49,107.23C758.56,195.63,710.4,227.92,652.69,227.92Z"/><path class="a" d="M660.73,101.06a5.6,5.6,0,0,0-5.63,5.79l.6,37.45c0,3.15,2.66,5.85,5.79,5.44,8.92-1.15,21.09-6.32,21.09-24.91C682.58,105.3,671.35,101.43,660.73,101.06Z"/><path class="a" d="M65.26,322.74c-12-2.81-14.88-4.93-14.88-9.68v-.17c0-4.05,3.77-7.31,10.22-7.31,5.74,0,11.39,2.2,17,6.34l5.93-8.19A35.25,35.25,0,0,0,60.78,296c-12.47,0-21.45,7.3-21.45,17.86V314c0,11.35,7.54,15.23,20.91,18.39,11.66,2.65,14.19,5,14.19,9.42V342c0,4.66-4.32,7.74-11.14,7.74-7.81,0-13.81-2.91-19.82-8l-6.64,7.75A39.11,39.11,0,0,0,63,359.35c13.19,0,22.42-6.87,22.42-18.39v-.18C85.45,330.58,78.54,325.91,65.26,322.74Z"/><path class="a" d="M148.41,295.82c-19.29,0-32.93,14.51-32.93,31.85v.18c0,17.34,13.46,31.68,32.75,31.68s32.93-14.52,32.93-31.86v-.17C181.16,310.16,167.71,295.82,148.41,295.82Zm21.18,32c0,12-8.71,21.74-21.18,21.74s-21.36-9.95-21.36-21.92v-.17c0-12,8.71-21.74,21.18-21.74s21.36,9.94,21.36,21.91Z"/><polygon class="a" points="225.36 296.88 214.34 296.88 214.34 358.47 258.39 358.47 258.39 348.62 225.36 348.62 225.36 296.88"/><path class="a" d="M331.39,332.33c0,11.36-6,17.17-15.8,17.17s-15.87-6.16-15.87-17.61v-35h-11v35.45c0,17.87,10.4,27.11,26.73,27.11s27-9.24,27-27.63V296.88h-11Z"/><polygon class="a" points="372.9 306.91 392.81 306.91 392.81 358.47 403.95 358.47 403.95 306.91 423.86 306.91 423.86 296.88 372.9 296.88 372.9 306.91"/><rect class="a" x="455.96" y="296.88" width="11.03" height="61.6"/><path class="a" d="M533.67,295.82c-19.29,0-32.93,14.51-32.93,31.85v.18c0,17.34,13.46,31.68,32.75,31.68s32.93-14.52,32.93-31.86v-.17C566.42,310.16,553,295.82,533.67,295.82Zm21.18,32c0,12-8.71,21.74-21.18,21.74s-21.36-9.95-21.36-21.92v-.17c0-12,8.71-21.74,21.18-21.74s21.36,9.94,21.36,21.91Z"/><polygon class="a" points="643.48 339.46 609.84 296.88 599.61 296.88 599.61 358.47 610.46 358.47 610.46 314.65 645.09 358.47 654.33 358.47 654.33 296.88 643.48 296.88 643.48 339.46"/><path class="a" d="M714.51,322.74c-12-2.81-14.89-4.93-14.89-9.68v-.17c0-4.05,3.77-7.31,10.22-7.31,5.75,0,11.4,2.2,17,6.34l5.92-8.19A35.25,35.25,0,0,0,710,296c-12.47,0-21.45,7.3-21.45,17.86V314c0,11.35,7.53,15.23,20.9,18.39,11.67,2.65,14.19,5,14.19,9.42V342c0,4.66-4.32,7.74-11.14,7.74-7.81,0-13.8-2.91-19.82-8l-6.64,7.75a39.15,39.15,0,0,0,26.21,9.85c13.18,0,22.42-6.87,22.42-18.39v-.18C734.7,330.58,727.78,325.91,714.51,322.74Z"/><path class="b" d="M155.55,111.88c-2.91-1.22-3.25-3.28-.94-5.43,6.73-6.24,15.64-18.52,15.64-38.2,0-38.8-36.07-51.24-83.46-51.24C70.89,17,33,19.29,18.56,20.2A6,6,0,0,0,13,26.27c.26,14,.91,52,.91,92.64,0,40.81-.67,83.93-.93,99.14a6.08,6.08,0,0,0,5.6,6.11c15.34,1,57.62,3.76,77.24,3.76,57.45,0,90.16-21.92,90.16-66.06C186,131.07,168.18,117.17,155.55,111.88ZM88.33,76c0-3.15,2.55-6.19,5.7-6,5.45.32,12.85,2.63,12.85,12.73,0,10.66-7.39,13.29-12.84,13.78-3.15.28-5.71-2.71-5.71-5.87Zm4.94,96.26c-3.14.4-5.69-2.34-5.66-5.49l.16-20.27c0-3.15,2.61-6,5.76-5.69,6.48.58,16.18,3.35,16.18,14.79C109.71,168.1,99.83,171.45,93.27,172.3Z"/><path class="b" d="M376.53,193.83c-4.37-2.09-10.76-5.28-16.19-8.57-6.49-3.93-15.71-10.6-21.18-14.64-2.53-1.88-2.27-4.55.43-6.18,13.89-8.42,37.5-28.85,37.5-63.31,0-52.43-31.94-84.42-107.42-84.42-22,0-56.3,2.4-69.77,3.41a6.13,6.13,0,0,0-5.59,6.16c.27,14.1.92,52.65.92,96.77,0,37.45-.67,79.89-.93,95a5.6,5.6,0,0,0,5.62,5.72H266a5.72,5.72,0,0,0,5.71-5.72V187.72c0-3.16,1.28-3.51,3.09-.92a340.64,340.64,0,0,0,25.5,31.93,250.31,250.31,0,0,0,24.14,22.79,6.78,6.78,0,0,0,8.65-.31l44.42-41.1C379.84,198,379.38,195.18,376.53,193.83ZM279,125a5.42,5.42,0,0,1-5.71-5.57V95.89c0-3.16,2.53-6.13,5.69-6.17,8-.11,21.61,1.9,21.61,16.75C300.58,120.89,287,124.25,279,125Z"/><path class="b" d="M477.28,12.86c-48.17,0-95.56,45.91-95.56,108.42,0,60.13,38.12,109.9,92.47,109.9,48.17,0,95.31-42.66,95.31-110.49C569.5,56.4,525.19,12.86,477.28,12.86Zm-1,137.15c-13.91,0-22.41-13.92-22.41-28.44s8.76-26.95,22.67-26.95c11.85,0,21.9,12.44,22.15,27.25C498.66,135.79,488.62,150,476.25,150Z"/><path class="b" d="M640.07,17c-20.53,0-45,2-55.87,3a6.26,6.26,0,0,0-5.57,6.27c.26,14.09.91,52.53.91,96.18,0,37.71-.67,80.43-.93,95.6a6.23,6.23,0,0,0,5.59,6.22c12.71,1.12,44.2,3.64,68.49,3.64,57.71,0,105.87-32.29,105.87-103.68C758.56,53.44,716.06,17,640.07,17Zm21.42,132.73c-3.13.41-5.74-2.29-5.79-5.44l-.6-37.45a5.6,5.6,0,0,1,5.63-5.79c10.62.37,21.85,4.24,21.85,23.77C682.58,143.42,670.41,148.59,661.49,149.74Z"/></svg>